<?xml version="1.0" standalone="no"?>
<!DOCTYPE svg PUBLIC "-//W3C//DTD SVG 20010904//EN"
 "http://www.w3.org/TR/2001/REC-SVG-20010904/DTD/svg10.dtd">
<svg version="1.0" xmlns="http://www.w3.org/2000/svg"
 width="455.000000pt" height="174.000000pt" viewBox="0 0 455.000000 174.000000"
 preserveAspectRatio="xMidYMid meet">

<g transform="translate(0.000000,174.000000) scale(0.100000,-0.100000)"
fill="#000000" stroke="none">
<path d="M3202 1422 c-72 -169 -132 -309 -132 -312 0 -3 25 -6 55 -6 l55 0 44
101 c24 55 70 162 102 239 33 76 64 140 70 143 9 3 951 -397 998 -424 11 -6
-35 -121 -195 -493 -115 -267 -213 -495 -218 -507 -10 -21 -24 -16 -508 193
-273 118 -501 218 -506 223 -4 4 2 33 15 64 l23 57 118 0 c115 0 119 -1 140
-26 17 -19 36 -27 70 -31 26 -3 47 -3 47 0 0 10 -151 352 -165 374 -30 46
-139 49 -177 5 -20 -21 -223 -491 -216 -497 3 -3 275 -122 604 -264 l599 -259
12 27 c65 149 504 1168 506 1175 2 9 -1175 525 -1198 526 -5 0 -70 -138 -143
-308z m-31 -547 c16 -38 29 -73 29 -77 0 -4 -34 -8 -75 -8 -41 0 -75 2 -75 5
0 2 9 28 21 57 12 29 25 63 30 76 15 39 39 21 70 -53z"/>
<path d="M469 1021 l-29 -29 0 -176 c0 -153 2 -176 16 -176 19 0 56 19 66 34
4 6 8 66 8 134 0 91 3 122 13 122 6 0 34 -60 61 -133 27 -72 53 -138 58 -144
11 -14 76 -17 95 -5 7 4 35 68 62 141 28 73 52 135 55 138 18 19 26 -20 26
-131 0 -135 2 -141 58 -152 l32 -6 0 161 c0 215 -15 251 -105 251 -55 0 -83
-37 -125 -165 -19 -60 -40 -110 -47 -112 -7 -3 -25 39 -47 110 -43 136 -66
167 -126 167 -33 0 -48 -6 -71 -29z"/>
<path d="M1216 1028 c-16 -14 -55 -91 -101 -200 -41 -97 -75 -179 -75 -182 0
-10 45 -7 78 5 17 6 38 21 47 35 15 23 20 24 127 24 111 0 112 0 137 -30 18
-21 39 -32 69 -36 28 -4 42 -3 42 4 0 6 -34 89 -75 184 -86 198 -102 218 -175
218 -37 0 -55 -6 -74 -22z m129 -161 c15 -37 25 -70 23 -73 -3 -3 -39 -4 -81
-2 l-75 3 30 75 c45 113 55 112 103 -3z"/>
<path d="M2606 1035 c-85 -30 -127 -89 -134 -184 -5 -71 26 -133 87 -176 40
-28 49 -30 157 -34 l114 -3 0 30 c0 16 -8 40 -19 53 -15 19 -30 23 -104 28
-96 7 -123 22 -133 76 -6 33 14 86 38 102 7 4 53 10 102 13 99 7 116 18 116
77 l0 33 -92 0 c-53 -1 -110 -7 -132 -15z"/>
<path d="M3496 1040 c-93 -29 -114 -161 -32 -211 24 -15 50 -19 117 -19 97 0
133 -15 113 -47 -10 -16 -28 -18 -144 -21 l-133 -3 7 -37 c9 -56 24 -62 165
-62 107 0 131 3 158 20 36 21 50 43 53 80 5 54 -1 73 -34 106 -34 34 -35 34
-127 34 -101 0 -123 7 -117 36 3 17 16 20 117 24 104 5 114 7 132 29 11 14 19
36 17 50 l-3 26 -130 2 c-71 1 -143 -2 -159 -7z"/>
<path d="M3834 1036 c-3 -9 -3 -27 0 -40 10 -42 33 -56 92 -56 l54 0 0 -150 0
-150 28 0 c15 0 38 7 50 16 21 14 22 22 22 150 l0 134 75 0 75 0 0 33 c0 22
-8 41 -21 53 -19 17 -41 19 -195 22 -151 3 -175 1 -180 -12z"/>
<path d="M41 1010 c-39 -40 -48 -87 -26 -134 25 -51 46 -60 159 -66 78 -4 101
-9 109 -22 8 -12 7 -21 -2 -32 -11 -13 -37 -16 -143 -16 l-130 0 6 -32 c11
-58 34 -68 157 -68 154 0 205 26 216 108 6 45 -15 95 -50 114 -12 7 -67 15
-122 18 -99 5 -100 5 -100 30 0 25 1 25 114 30 124 6 141 15 141 72 l0 28
-149 0 -149 0 -31 -30z"/>
<path d="M1600 840 c0 -117 4 -200 9 -200 19 0 66 21 73 33 4 7 8 36 8 65 l0
52 83 0 c51 0 88 -5 95 -12 7 -7 12 -30 12 -52 0 -23 4 -46 8 -52 11 -17 48
-34 73 -34 21 0 21 3 17 85 -3 58 -9 90 -20 102 -14 16 -15 20 -2 37 20 28 18
106 -4 132 -31 39 -56 44 -206 44 l-146 0 0 -200z m270 91 c7 -14 5 -24 -8
-41 -15 -19 -25 -21 -92 -18 l-75 3 -3 38 -3 37 85 0 c74 0 87 -3 96 -19z"/>
<path d="M2020 1012 c0 -49 21 -65 89 -70 l61 -4 0 -149 0 -149 25 0 c14 0 34
9 45 20 18 18 20 33 20 150 l0 130 75 0 75 0 0 33 c0 62 -15 67 -213 67 l-177
0 0 -28z"/>
</g>
</svg>
